<!-- public/favicon.svg -->
<svg xmlns="http://www.w3.org/2000/svg" viewBox="0 0 512 512">
  <circle cx="256" cy="256" r="256" fill="#3b82f6"></circle>
  <path fill="#fff" fill-rule="evenodd" clip-rule="evenodd" d="M201.5 305.5c-13.8 0-25 11.2-25 25s11.2 25 25 25 25-11.2 25-25-11.2-25-25-25zm108.9 0c-13.8 0-25 11.2-25 25s11.2 25 25 25 25-11.2 25-25-11.1-25-25-25zM256 370.6c-18.5 0-33.9-6.1-44.4-16.9-4.5-4.8-12-5-16.8-.5-4.8 4.5-5 12-.5 16.8 15 16.1 36.8 25.1 61.7 25.1s46.7-9 61.7-25.1c4.5-4.8 4.3-12.4-.5-16.8-4.8-4.5-12.4-4.3-16.8.5-10.6 10.9-25.9 16.9-44.4 16.9zm248-114.6c0-36.2-29.5-65.7-65.7-65.7-17.5 0-33.4 6.9-45.3 18.1-33.1-22.4-75.6-36.5-123.1-38.3l22.5-105.2 73.5 15.7c0 18.2 14.8 33 33 33 18.2 0 33-14.8 33-33s-14.8-33-33-33c-13.3 0-24.7 7.9-29.8 19.3l-81.2-17.4c-3.3-.7-6.6.3-9.1 2.3s-4.1 5-4.7 8.2l-25.2 117.9c-47.7 1.7-90.6 15.8-124 38.3-11.9-11.2-27.8-18.1-45.3-18.1-36.2 0-65.7 29.5-65.7 65.7 0 26.8 16.1 49.8 38.9 59.9-1 5-1.5 10.2-1.5 15.5 0 74.4 94.6 134.8 211.1 134.8s211.1-60.4 211.1-134.8c0-5.3-.5-10.5-1.5-15.5 22.8-10.2 38.9-33.1 38.9-59.9z"></path>
</svg>
